{
  "accessors": [
    {
      "bufferView": 0,
      "componentType": 5126,
      "count": 64202,
      "max": [
        56.0905570983887,
        117.653190612793,
        167.004531860352
      ],
      "min": [
        -68.7099761962891,
        -61.5831642150879,
        -14.1364698410034
      ],
      "type": "VEC3"
    },
    {
      "bufferView": 1,
      "componentType": 5126,
      "count": 64202,
      "type": "VEC3"
    },
    {
      "bufferView": 2,
      "componentType": 5126,
      "count": 64202,
      "type": "VEC2"
    },
    {
      "bufferView": 3,
      "componentType": 5123,
      "count": 299316,
      "type": "SCALAR"
    }
  ],
  "asset": {
    "generator": "MeshSmith mesh conversion tool",
    "version": "2.0"
  },
  "bufferViews": [
    {
      "buffer": 0,
      "byteLength": 770424,
      "target": 34962
    },
    {
      "buffer": 0,
      "byteLength": 770424,
      "byteOffset": 770424,
      "target": 34962
    },
    {
      "buffer": 0,
      "byteLength": 513616,
      "byteOffset": 1540848,
      "target": 34962
    },
    {
      "buffer": 0,
      "byteLength": 598632,
      "byteOffset": 2054464,
      "target": 34963
    }
  ],
  "buffers": [
    {
      "byteLength": 2653096,
      "uri": "usnm_346-01-100k-web.bin"
    }
  ],
  "images": [
    {
      "uri": "usnm_346_diffuse-100k.jpg"
    },
    {
      "uri": "usnm_346_occlusion-100k.jpg"
    },
    {
      "uri": "usnm_346_normals-100k.jpg"
    }
  ],
  "materials": [
    {
      "name": "default",
      "normalTexture": {
        "index": 2
      },
      "occlusionTexture": {
        "index": 1
      },
      "pbrMetallicRoughness": {
        "baseColorTexture": {
          "index": 0
        },
        "metallicFactor": 0.100000001490116,
        "roughnessFactor": 0.800000011920929
      }
    }
  ],
  "meshes": [
    {
      "primitives": [
        {
          "attributes": {
            "NORMAL": 1,
            "POSITION": 0,
            "TEXCOORD_0": 2
          },
          "indices": 3,
          "material": 0,
          "mode": 4
        }
      ]
    }
  ],
  "nodes": [
    {
      "mesh": 0
    }
  ],
  "scene": 0,
  "scenes": [
    {
      "nodes": [
        0
      ]
    }
  ],
  "textures": [
    {
      "source": 0
    },
    {
      "source": 1
    },
    {
      "source": 2
    }
  ]
}